<svg width="81" height="99" viewBox="0 0 81 99" fill="none" xmlns="http://www.w3.org/2000/svg">
<g filter="url(#filter0_d_5_73)">
<path d="M40.4281 78.25H40.5C51.5946 78.25 60.625 69.2225 60.625 58.125V40.875C60.625 29.8321 51.6349 20.8247 40.5546 20.75H40.3821C29.3421 20.8132 20.375 29.8264 20.375 40.875V58.125C20.375 69.2225 29.3709 78.25 40.4281 78.25ZM26.125 40.875C26.1303 37.0716 27.6406 33.4248 30.3259 30.7314C33.0113 28.0379 36.6535 26.5167 40.4569 26.5C48.4063 26.5172 54.875 32.9659 54.875 40.875V58.125C54.875 66.0514 48.4264 72.5 40.5 72.5H40.4281C32.4098 72.5 26.125 66.1865 26.125 58.125V40.875Z" fill="white"/>
<path d="M37.625 32.25H43.375V49.5H37.625V32.25Z" fill="white"/>
</g>
<defs>
<filter id="filter0_d_5_73" x="-14" y="-5" width="109" height="109" filterUnits="userSpaceOnUse" color-interpolation-filters="sRGB">
<feFlood flood-opacity="0" result="BackgroundImageFix"/>
<feColorMatrix in="SourceAlpha" type="matrix" values="0 0 0 0 0 0 0 0 0 0 0 0 0 0 0 0 0 0 127 0" result="hardAlpha"/>
<feOffset/>
<feGaussianBlur stdDeviation="10"/>
<feComposite in2="hardAlpha" operator="out"/>
<feColorMatrix type="matrix" values="0 0 0 0 0 0 0 0 0 0 0 0 0 0 0 0 0 0 0.5 0"/>
<feBlend mode="normal" in2="BackgroundImageFix" result="effect1_dropShadow_5_73"/>
<feBlend mode="normal" in="SourceGraphic" in2="effect1_dropShadow_5_73" result="shape"/>
</filter>
</defs>
</svg>
